REM DIRINDEX 1\2,1\3,1\4,1\5
REM DIRNAME "folder01","folder02","folder03","folder04","folder05"
TITLE ""
FILE "P1Q_j_1707-1720.mp3" MP3
  TRACK 01 AUDIO
    TITLE "3:cjc173_0322"
    INDEX 01 00:00:00
  TRACK 02 AUDIO
    TITLE "0:"
    INDEX 01 00:01:43
  TRACK 03 AUDIO
    TITLE "4:cjc173_0323"
    INDEX 01 00:01:65
  TRACK 04 AUDIO
    TITLE "0:"
    INDEX 01 00:07:12
  TRACK 05 AUDIO
    TITLE "5:cjc173_0324"
    INDEX 01 00:07:32
  TRACK 06 AUDIO
    TITLE "0:"
    INDEX 01 00:11:39
  TRACK 07 AUDIO
    TITLE "3:cjc173_0325"
    INDEX 01 00:12:10
  TRACK 08 AUDIO
    TITLE "0:"
    INDEX 01 00:13:34
  TRACK 09 AUDIO
    TITLE "4:cjc173_0326"
    INDEX 01 00:13:56
  TRACK 10 AUDIO
    TITLE "0:"
    INDEX 01 00:15:12
  TRACK 11 AUDIO
    TITLE "5:cjc173_0327"
    INDEX 01 00:15:29
  TRACK 12 AUDIO
    TITLE "0:"
    INDEX 01 00:18:55
  TRACK 13 AUDIO
    TITLE "3:cjc173_0328"
    INDEX 01 00:19:25
  TRACK 14 AUDIO
    TITLE "0:"
    INDEX 01 00:20:66
  TRACK 15 AUDIO
    TITLE "4:cjc173_0329"
    INDEX 01 00:21:10
  TRACK 16 AUDIO
    TITLE "0:"
    INDEX 01 00:28:46
  TRACK 17 AUDIO
    TITLE "5:cjc173_0330"
    INDEX 01 00:28:65
  TRACK 18 AUDIO
    TITLE "0:"
    INDEX 01 00:35:03
  TRACK 19 AUDIO
    TITLE "3:cjc173_0331"
    INDEX 01 00:35:50
  TRACK 20 AUDIO
    TITLE "0:"
    INDEX 01 00:37:60
  TRACK 21 AUDIO
    TITLE "4:cjc173_0332"
    INDEX 01 00:38:05
  TRACK 22 AUDIO
    TITLE "0:"
    INDEX 01 00:40:45
  TRACK 23 AUDIO
    TITLE "5:cjc173_0333"
    INDEX 01 00:40:63
  TRACK 24 AUDIO
    TITLE "0:"
    INDEX 01 00:44:55
  TRACK 25 AUDIO
    TITLE "3:cjc173_0334"
    INDEX 01 00:45:25
  TRACK 26 AUDIO
    TITLE "0:"
    INDEX 01 00:46:73
  TRACK 27 AUDIO
    TITLE "4:cjc173_0335"
    INDEX 01 00:47:18
  TRACK 28 AUDIO
    TITLE "0:"
    INDEX 01 00:50:55
  TRACK 29 AUDIO
    TITLE "5:cjc173_0336"
    INDEX 01 00:51:00
  TRACK 30 AUDIO
    TITLE "0:"
    INDEX 01 00:55:31
  TRACK 31 AUDIO
    TITLE "3:cjc173_0337"
    INDEX 01 00:56:01
  TRACK 32 AUDIO
    TITLE "0:"
    INDEX 01 00:57:26
  TRACK 33 AUDIO
    TITLE "4:cjc173_0338"
    INDEX 01 00:57:47
  TRACK 34 AUDIO
    TITLE "0:"
    INDEX 01 01:00:52
  TRACK 35 AUDIO
    TITLE "5:cjc173_0339"
    INDEX 01 01:00:71
  TRACK 36 AUDIO
    TITLE "0:"
    INDEX 01 01:05:04
  TRACK 37 AUDIO
    TITLE "3:cjc173_0340"
    INDEX 01 01:05:51
  TRACK 38 AUDIO
    TITLE "0:"
    INDEX 01 01:07:32
  TRACK 39 AUDIO
    TITLE "4:cjc173_0341"
    INDEX 01 01:07:52
  TRACK 40 AUDIO
    TITLE "0:"
    INDEX 01 01:10:07
  TRACK 41 AUDIO
    TITLE "5:cjc173_0342"
    INDEX 01 01:10:27
  TRACK 42 AUDIO
    TITLE "0:"
    INDEX 01 01:13:37
  TRACK 43 AUDIO
    TITLE "3:cjc173_0343"
    INDEX 01 01:14:07
  TRACK 44 AUDIO
    TITLE "0:"
    INDEX 01 01:15:49
  TRACK 45 AUDIO
    TITLE "4:cjc173_0344"
    INDEX 01 01:15:71
  TRACK 46 AUDIO
    TITLE "0:"
    INDEX 01 01:19:69
  TRACK 47 AUDIO
    TITLE "5:cjc173_0345"
    INDEX 01 01:20:13
  TRACK 48 AUDIO
    TITLE "0:"
    INDEX 01 01:26:14
  TRACK 49 AUDIO
    TITLE "3:cjc173_0346"
    INDEX 01 01:26:59
  TRACK 50 AUDIO
    TITLE "0:"
    INDEX 01 01:28:26
  TRACK 51 AUDIO
    TITLE "4:cjc173_0347"
    INDEX 01 01:28:48
  TRACK 52 AUDIO
    TITLE "0:"
    INDEX 01 01:34:11
  TRACK 53 AUDIO
    TITLE "5:cjc173_0348"
    INDEX 01 01:34:31
  TRACK 54 AUDIO
    TITLE "0:"
    INDEX 01 01:38:43
  TRACK 55 AUDIO
    TITLE "3:cjc173_0349"
    INDEX 01 01:39:13
  TRACK 56 AUDIO
    TITLE "0:"
    INDEX 01 01:40:59
  TRACK 57 AUDIO
    TITLE "4:cjc173_0350"
    INDEX 01 01:41:06
  TRACK 58 AUDIO
    TITLE "0:"
    INDEX 01 01:45:19
  TRACK 59 AUDIO
    TITLE "5:cjc173_0351"
    INDEX 01 01:45:39
  TRACK 60 AUDIO
    TITLE "0:"
    INDEX 01 01:50:42
  TRACK 61 AUDIO
    TITLE "3:cjc173_0352"
    INDEX 01 01:51:12
  TRACK 62 AUDIO
    TITLE "0:"
    INDEX 01 01:52:43
  TRACK 63 AUDIO
    TITLE "4:cjc173_0353"
    INDEX 01 01:52:62
  TRACK 64 AUDIO
    TITLE "0:"
    INDEX 01 01:59:62
  TRACK 65 AUDIO
    TITLE "5:cjc173_0354"
    INDEX 01 02:00:05
  TRACK 66 AUDIO
    TITLE "0:"
    INDEX 01 02:06:23
  TRACK 67 AUDIO
    TITLE "3:cjc173_0355"
    INDEX 01 02:06:68
  TRACK 68 AUDIO
    TITLE "0:"
    INDEX 01 02:08:44
  TRACK 69 AUDIO
    TITLE "4:cjc173_0356"
    INDEX 01 02:08:61
  TRACK 70 AUDIO
    TITLE "0:"
    INDEX 01 02:12:69
  TRACK 71 AUDIO
    TITLE "5:cjc173_0357"
    INDEX 01 02:13:13
  TRACK 72 AUDIO
    TITLE "0:"
    INDEX 01 02:18:50
  TRACK 73 AUDIO
    TITLE "3:cjc173_0358"
    INDEX 01 02:19:20
  TRACK 74 AUDIO
    TITLE "0:"
    INDEX 01 02:20:53
  TRACK 75 AUDIO
    TITLE "4:cjc173_0359"
    INDEX 01 02:20:74
  TRACK 76 AUDIO
    TITLE "0:"
    INDEX 01 02:24:43
  TRACK 77 AUDIO
    TITLE "5:cjc173_0360"
    INDEX 01 02:24:62
  TRACK 78 AUDIO
    TITLE "0:"
    INDEX 01 02:28:54
  TRACK 79 AUDIO
    TITLE "3:cjc173_0361"
    INDEX 01 02:29:24
  TRACK 80 AUDIO
    TITLE "0:"
    INDEX 01 02:31:64
  TRACK 81 AUDIO
    TITLE "4:cjc173_0362"
    INDEX 01 02:32:09
  TRACK 82 AUDIO
    TITLE "0:"
    INDEX 01 02:36:34
  TRACK 83 AUDIO
    TITLE "5:cjc173_0363"
    INDEX 01 02:36:54
  TRACK 84 AUDIO
    TITLE "0:"
    INDEX 01 02:42:43
